<svg width="36" height="36" viewBox="0 0 36 36" fill="none" xmlns="http://www.w3.org/2000/svg">
<path fill-rule="evenodd" clip-rule="evenodd" d="M26.4795 15.525L29.5635 16.029C29.6855 16.049 29.7964 16.1117 29.8764 16.2059C29.9564 16.3002 30.0002 16.4199 30 16.5435V19.413C29.9997 19.5356 29.9563 19.6543 29.8773 19.7481C29.7983 19.8419 29.6888 19.9049 29.568 19.926L26.481 20.469C26.3022 21.0868 26.0557 21.6829 25.746 22.2465L27.5715 24.7815C27.7215 24.9885 27.6975 25.2735 27.5175 25.4565L25.488 27.4845C25.4016 27.5715 25.2873 27.6252 25.1652 27.6362C25.0431 27.6472 24.921 27.6147 24.8205 27.5445L22.26 25.7475C21.696 26.0625 21.096 26.313 20.4705 26.4975L19.926 29.5695C19.9048 29.6904 19.8415 29.7999 19.7474 29.8787C19.6532 29.9575 19.5343 30.0004 19.4115 30H16.542C16.4186 30.0003 16.2991 29.9567 16.2049 29.877C16.1106 29.7973 16.0478 29.6867 16.0275 29.565L15.5175 26.5065C14.8934 26.326 14.2913 26.077 13.722 25.764L11.181 27.543C11.0806 27.6137 10.9585 27.6468 10.8361 27.6363C10.7138 27.6259 10.599 27.5727 10.512 27.486L8.4825 25.455C8.39578 25.3673 8.34281 25.2518 8.33293 25.1288C8.32305 25.0059 8.3569 24.8834 8.4285 24.783L10.224 22.272C9.90766 21.6997 9.65611 21.094 9.474 20.466L6.4305 19.926C6.30998 19.9045 6.20083 19.8414 6.12214 19.7476C6.04345 19.6539 6.00022 19.5354 6 19.413V16.5435C6 16.2885 6.1845 16.071 6.435 16.029L9.48 15.522C9.6615 14.892 9.9135 14.289 10.23 13.7175L8.454 11.1795C8.38359 11.0792 8.35086 10.9572 8.36156 10.8351C8.37226 10.713 8.42571 10.5986 8.5125 10.512L10.5405 8.484C10.7205 8.304 11.0055 8.28 11.2125 8.4285L13.7325 10.2285C14.3015 9.91758 14.9032 9.67058 15.5265 9.492L16.026 6.438C16.046 6.3156 16.1088 6.2043 16.2034 6.12404C16.2979 6.04378 16.418 5.99981 16.542 6H19.4115C19.6665 6 19.8825 6.183 19.926 6.432L20.4645 9.5025C21.087 9.684 21.687 9.933 22.254 10.248L24.7815 8.4315C24.8821 8.3588 25.0052 8.3243 25.1289 8.3342C25.2526 8.3441 25.3688 8.39774 25.4565 8.4855L27.4845 10.5135C27.6645 10.6935 27.6885 10.9755 27.543 11.1825L25.743 13.7475C26.052 14.3115 26.2995 14.9055 26.4795 15.525ZM14.3475 18C14.3475 18.4797 14.442 18.9546 14.6255 19.3978C14.8091 19.8409 15.0781 20.2435 15.4173 20.5827C15.7565 20.9219 16.1591 21.1909 16.6022 21.3745C17.0454 21.558 17.5203 21.6525 18 21.6525C18.4797 21.6525 18.9546 21.558 19.3978 21.3745C19.8409 21.1909 20.2435 20.9219 20.5827 20.5827C20.9219 20.2435 21.1909 19.8409 21.3745 19.3978C21.558 18.9546 21.6525 18.4797 21.6525 18C21.6525 17.0313 21.2677 16.1023 20.5827 15.4173C19.8977 14.7323 18.9687 14.3475 18 14.3475C17.0313 14.3475 16.1023 14.7323 15.4173 15.4173C14.7323 16.1023 14.3475 17.0313 14.3475 18Z" fill="#EA7000"/>
</svg>
