<svg width="95" height="34" viewBox="0 0 95 34" fill="none" xmlns="http://www.w3.org/2000/svg">
<path d="M9.872 23.12C7.968 23.12 6.312 22.776 4.904 22.088C3.496 21.384 2.416 20.392 1.664 19.112C0.912 17.832 0.536 16.344 0.536 14.648C0.536 12.296 0.976 10.208 1.856 8.384C2.752 6.56 3.96 5.152 5.48 4.16C7 3.152 8.688 2.648 10.544 2.648C12.272 2.648 13.584 3.096 14.48 3.992C15.376 4.872 15.824 6.04 15.824 7.496C15.824 8.472 15.648 9.256 15.296 9.848C14.96 10.44 14.472 10.736 13.832 10.736C13.384 10.736 13.032 10.632 12.776 10.424C12.52 10.216 12.392 9.912 12.392 9.512C12.392 9.368 12.424 9.104 12.488 8.72C12.584 8.24 12.632 7.856 12.632 7.568C12.632 6.112 11.856 5.384 10.304 5.384C9.248 5.384 8.24 5.728 7.28 6.416C6.32 7.104 5.544 8.12 4.952 9.464C4.36 10.792 4.064 12.376 4.064 14.216C4.064 16.136 4.6 17.624 5.672 18.68C6.744 19.72 8.328 20.24 10.424 20.24C11.464 20.24 12.512 20.112 13.568 19.856C14.64 19.584 15.824 19.176 17.12 18.632C17.36 18.536 17.56 18.488 17.72 18.488C17.976 18.488 18.168 18.584 18.296 18.776C18.424 18.968 18.488 19.216 18.488 19.52C18.488 20.496 17.96 21.216 16.904 21.68C15.768 22.176 14.584 22.544 13.352 22.784C12.136 23.008 10.976 23.12 9.872 23.12ZM28.6108 15.632C28.8188 15.632 28.9788 15.736 29.0908 15.944C29.2028 16.152 29.2588 16.416 29.2588 16.736C29.2588 17.504 29.0268 17.96 28.5628 18.104C27.6028 18.44 26.5468 18.632 25.3948 18.68C25.0908 20.024 24.4908 21.104 23.5948 21.92C22.6988 22.72 21.6828 23.12 20.5468 23.12C19.5868 23.12 18.7628 22.888 18.0748 22.424C17.4028 21.96 16.8908 21.344 16.5388 20.576C16.1868 19.808 16.0107 18.976 16.0107 18.08C16.0107 16.864 16.2428 15.784 16.7068 14.84C17.1708 13.88 17.8108 13.136 18.6268 12.608C19.4428 12.064 20.3468 11.792 21.3388 11.792C22.5548 11.792 23.5308 12.216 24.2668 13.064C25.0188 13.896 25.4588 14.928 25.5868 16.16C26.3388 16.112 27.2348 15.952 28.2748 15.68C28.4028 15.648 28.5148 15.632 28.6108 15.632ZM20.7388 20.576C21.2508 20.576 21.6908 20.368 22.0588 19.952C22.4428 19.536 22.6988 18.936 22.8268 18.152C22.3308 17.816 21.9468 17.376 21.6748 16.832C21.4188 16.288 21.2908 15.712 21.2908 15.104C21.2908 14.848 21.3148 14.592 21.3628 14.336H21.2428C20.6028 14.336 20.0668 14.648 19.6348 15.272C19.2188 15.88 19.0108 16.744 19.0108 17.864C19.0108 18.744 19.1788 19.416 19.5148 19.88C19.8668 20.344 20.2748 20.576 20.7388 20.576ZM36.2949 17.648C36.5029 17.648 36.6629 17.744 36.7749 17.936C36.9029 18.128 36.9669 18.392 36.9669 18.728C36.9669 19.368 36.8149 19.864 36.5109 20.216C35.8229 21.064 35.0709 21.76 34.2549 22.304C33.4549 22.848 32.5429 23.12 31.5189 23.12C30.1109 23.12 29.0629 22.48 28.3749 21.2C27.7029 19.92 27.3669 18.264 27.3669 16.232C27.3669 14.28 27.6149 12.056 28.1109 9.56C28.6229 7.064 29.3669 4.92 30.3429 3.128C31.3349 1.336 32.5109 0.439999 33.8709 0.439999C34.6389 0.439999 35.2389 0.799999 35.6709 1.52C36.1189 2.224 36.3429 3.24 36.3429 4.568C36.3429 6.472 35.8149 8.68 34.7589 11.192C33.7029 13.704 32.2709 16.192 30.4629 18.656C30.5749 19.312 30.7589 19.784 31.0149 20.072C31.2709 20.344 31.6069 20.48 32.0229 20.48C32.6789 20.48 33.2549 20.296 33.7509 19.928C34.2469 19.544 34.8789 18.896 35.6469 17.984C35.8389 17.76 36.0549 17.648 36.2949 17.648ZM33.3429 2.816C32.9749 2.816 32.5589 3.48 32.0949 4.808C31.6309 6.136 31.2229 7.784 30.8709 9.752C30.5189 11.72 30.3269 13.608 30.2949 15.416C31.4309 13.544 32.3349 11.672 33.0069 9.8C33.6789 7.912 34.0149 6.192 34.0149 4.64C34.0149 3.424 33.7909 2.816 33.3429 2.816ZM38.171 10.232C37.499 10.232 36.995 10.08 36.659 9.776C36.323 9.456 36.155 9.016 36.155 8.456C36.155 7.896 36.371 7.432 36.803 7.064C37.251 6.68 37.803 6.488 38.459 6.488C39.051 6.488 39.531 6.632 39.899 6.92C40.267 7.208 40.451 7.616 40.451 8.144C40.451 8.784 40.243 9.296 39.827 9.68C39.411 10.048 38.859 10.232 38.171 10.232ZM37.979 23.12C36.939 23.12 36.179 22.752 35.699 22.016C35.235 21.28 35.003 20.304 35.003 19.088C35.003 18.368 35.091 17.448 35.267 16.328C35.459 15.192 35.699 14.136 35.987 13.16C36.131 12.648 36.323 12.296 36.563 12.104C36.803 11.912 37.187 11.816 37.715 11.816C38.531 11.816 38.939 12.088 38.939 12.632C38.939 13.032 38.787 13.96 38.483 15.416C38.099 17.176 37.907 18.368 37.907 18.992C37.907 19.472 37.971 19.84 38.099 20.096C38.227 20.352 38.443 20.48 38.747 20.48C39.035 20.48 39.395 20.28 39.827 19.88C40.259 19.48 40.835 18.848 41.555 17.984C41.747 17.76 41.963 17.648 42.203 17.648C42.411 17.648 42.571 17.744 42.683 17.936C42.811 18.128 42.875 18.392 42.875 18.728C42.875 19.368 42.723 19.864 42.419 20.216C40.835 22.152 39.355 23.12 37.979 23.12ZM53.2213 17.696C53.4293 17.696 53.5893 17.8 53.7013 18.008C53.8293 18.2 53.8932 18.448 53.8932 18.752C53.8932 19.12 53.8373 19.408 53.7253 19.616C53.6133 19.824 53.4373 20.008 53.1973 20.168C51.8213 21.096 50.8133 21.784 50.1733 22.232L48.6373 23.264C48.0293 26.576 47.2293 29.176 46.2373 31.064C45.2613 32.968 44.0133 33.92 42.4933 33.92C41.6773 33.92 41.0133 33.664 40.5013 33.152C39.9893 32.656 39.7332 32 39.7332 31.184C39.7332 30.048 40.1813 28.824 41.0773 27.512C41.9733 26.216 43.6533 24.616 46.1172 22.712L46.2613 21.776C45.9893 22.208 45.6293 22.544 45.1813 22.784C44.7493 23.008 44.3173 23.12 43.8853 23.12C42.8933 23.12 42.1013 22.76 41.5093 22.04C40.9173 21.32 40.6213 20.376 40.6213 19.208C40.6213 17.928 40.9173 16.72 41.5093 15.584C42.1013 14.432 42.8853 13.512 43.8613 12.824C44.8533 12.12 45.9013 11.768 47.0053 11.768C47.3573 11.768 47.5893 11.84 47.7013 11.984C47.8293 12.112 47.9333 12.352 48.0133 12.704C48.3173 12.64 48.6693 12.608 49.0693 12.608C49.4693 12.608 49.7493 12.672 49.9093 12.8C50.0853 12.912 50.1733 13.144 50.1733 13.496C50.1733 13.688 50.1653 13.84 50.1493 13.952C50.0853 14.448 49.8853 15.704 49.5493 17.72C49.4853 18.104 49.4133 18.528 49.3333 18.992C49.2693 19.44 49.1973 19.92 49.1173 20.432C50.3493 19.472 51.5333 18.624 52.6693 17.888C52.8773 17.76 53.0613 17.696 53.2213 17.696ZM44.7493 20.696C45.1173 20.696 45.4693 20.472 45.8053 20.024C46.1413 19.576 46.3813 18.936 46.5253 18.104L47.2933 14C46.6373 14.016 46.0293 14.272 45.4693 14.768C44.9093 15.248 44.4613 15.888 44.1253 16.688C43.7893 17.488 43.6213 18.336 43.6213 19.232C43.6213 19.728 43.7173 20.096 43.9093 20.336C44.1173 20.576 44.3973 20.696 44.7493 20.696ZM42.7573 31.592C43.1573 31.592 43.6053 31.112 44.1013 30.152C44.6133 29.192 45.1013 27.664 45.5653 25.568C44.3333 26.624 43.4453 27.576 42.9013 28.424C42.3573 29.272 42.0853 30.016 42.0853 30.656C42.0853 30.928 42.1333 31.152 42.2293 31.328C42.3413 31.504 42.5173 31.592 42.7573 31.592ZM65.7376 17.648C65.9456 17.648 66.1056 17.744 66.2176 17.936C66.3456 18.128 66.4096 18.392 66.4096 18.728C66.4096 19.368 66.2576 19.864 65.9536 20.216C65.2176 21.064 64.4576 21.76 63.6736 22.304C62.9056 22.848 62.0256 23.12 61.0336 23.12C60.2176 23.12 59.6016 22.888 59.1856 22.424C58.7696 21.944 58.5616 21.256 58.5616 20.36C58.5616 19.912 58.6736 19.112 58.8976 17.96C59.1056 16.952 59.2096 16.256 59.2096 15.872C59.2096 15.616 59.1216 15.488 58.9456 15.488C58.7376 15.488 58.4416 15.76 58.0576 16.304C57.6736 16.832 57.2896 17.536 56.9056 18.416C56.5216 19.296 56.2096 20.224 55.9696 21.2C55.6656 22.48 54.9136 23.12 53.7136 23.12C53.2336 23.12 52.9136 22.952 52.7536 22.616C52.6096 22.264 52.5376 21.64 52.5376 20.744C52.5376 20.232 52.5456 19.824 52.5616 19.52L52.5856 17.6C52.5856 15.136 52.8336 12.568 53.3296 9.896C53.8416 7.224 54.5856 4.984 55.5616 3.176C56.5536 1.352 57.7376 0.439999 59.1136 0.439999C59.8496 0.439999 60.4416 0.759999 60.8896 1.4C61.3536 2.024 61.5856 2.84 61.5856 3.848C61.5856 5.464 61.1136 7.144 60.1696 8.888C59.2256 10.616 57.6896 12.64 55.5616 14.96C55.5136 15.792 55.4896 16.648 55.4896 17.528C56.0176 16.168 56.6016 15.064 57.2416 14.216C57.8976 13.352 58.5376 12.736 59.1616 12.368C59.8016 12 60.3856 11.816 60.9136 11.816C61.9536 11.816 62.4736 12.336 62.4736 13.376C62.4736 14 62.2976 15.128 61.9456 16.76C61.6416 18.152 61.4896 19.072 61.4896 19.52C61.4896 20.16 61.7216 20.48 62.1856 20.48C62.5056 20.48 62.8816 20.288 63.3136 19.904C63.7616 19.504 64.3536 18.864 65.0896 17.984C65.2816 17.76 65.4976 17.648 65.7376 17.648ZM58.6096 2.816C58.3216 2.816 58.0016 3.232 57.6496 4.064C57.2976 4.88 56.9536 5.992 56.6176 7.4C56.2976 8.792 56.0336 10.312 55.8256 11.96C56.8176 10.792 57.6336 9.52 58.2736 8.144C58.9296 6.768 59.2576 5.52 59.2576 4.4C59.2576 3.888 59.2016 3.496 59.0896 3.224C58.9776 2.952 58.8176 2.816 58.6096 2.816ZM75.1685 17.648C75.3765 17.648 75.5365 17.744 75.6485 17.936C75.7765 18.128 75.8405 18.392 75.8405 18.728C75.8405 19.368 75.6885 19.864 75.3845 20.216C74.6965 21.064 73.9445 21.76 73.1285 22.304C72.3125 22.848 71.3765 23.12 70.3205 23.12C67.0565 23.12 65.4245 20.824 65.4245 16.232C65.4245 15.528 65.4485 14.816 65.4965 14.096H64.5605C64.0805 14.096 63.7525 14.008 63.5765 13.832C63.4165 13.656 63.3365 13.376 63.3365 12.992C63.3365 12.096 63.6965 11.648 64.4165 11.648H65.7845C66.0565 9.888 66.4725 8.28 67.0325 6.824C67.5925 5.368 68.2645 4.208 69.0485 3.344C69.8485 2.48 70.7045 2.048 71.6165 2.048C72.2885 2.048 72.8165 2.344 73.2005 2.936C73.5845 3.528 73.7765 4.272 73.7765 5.168C73.7765 7.648 72.7365 9.808 70.6565 11.648H73.3445C73.6005 11.648 73.7845 11.704 73.8965 11.816C74.0085 11.928 74.0645 12.136 74.0645 12.44C74.0645 13.544 73.1605 14.096 71.3525 14.096H68.4245C68.3925 14.896 68.3765 15.52 68.3765 15.968C68.3765 17.632 68.5685 18.8 68.9525 19.472C69.3525 20.144 69.9765 20.48 70.8245 20.48C71.5125 20.48 72.1205 20.272 72.6485 19.856C73.1765 19.44 73.8005 18.816 74.5205 17.984C74.7125 17.76 74.9285 17.648 75.1685 17.648ZM70.9685 4.352C70.7285 4.352 70.4565 4.656 70.1525 5.264C69.8645 5.856 69.5845 6.688 69.3125 7.76C69.0565 8.816 68.8405 9.992 68.6645 11.288C69.6085 10.472 70.3125 9.56 70.7765 8.552C71.2565 7.528 71.4965 6.6 71.4965 5.768C71.4965 4.824 71.3205 4.352 70.9685 4.352ZM84.5904 17.648C84.7984 17.648 84.9584 17.744 85.0704 17.936C85.1984 18.128 85.2624 18.392 85.2624 18.728C85.2624 19.368 85.1104 19.864 84.8064 20.216C84.2144 20.936 83.3744 21.6 82.2864 22.208C81.2144 22.816 80.0624 23.12 78.8304 23.12C77.1504 23.12 75.8464 22.664 74.9184 21.752C73.9904 20.84 73.5264 19.592 73.5264 18.008C73.5264 16.904 73.7584 15.88 74.2224 14.936C74.6864 13.976 75.3264 13.216 76.1424 12.656C76.9744 12.096 77.9104 11.816 78.9504 11.816C79.8784 11.816 80.6224 12.096 81.1824 12.656C81.7424 13.2 82.0224 13.944 82.0224 14.888C82.0224 15.992 81.6224 16.944 80.8224 17.744C80.0384 18.528 78.7024 19.152 76.8144 19.616C77.2144 20.352 77.9744 20.72 79.0944 20.72C79.8144 20.72 80.6304 20.472 81.5424 19.976C82.4704 19.464 83.2704 18.8 83.9424 17.984C84.1344 17.76 84.3504 17.648 84.5904 17.648ZM78.5424 14.168C77.9504 14.168 77.4464 14.512 77.0304 15.2C76.6304 15.888 76.4304 16.72 76.4304 17.696V17.744C77.3744 17.52 78.1184 17.184 78.6624 16.736C79.2064 16.288 79.4784 15.768 79.4784 15.176C79.4784 14.872 79.3904 14.632 79.2144 14.456C79.0544 14.264 78.8304 14.168 78.5424 14.168ZM93.0043 15.104C93.3563 15.104 93.6523 15.232 93.8923 15.488C94.1483 15.728 94.2762 16.032 94.2762 16.4C94.2762 16.608 94.2283 16.832 94.1323 17.072C93.8763 17.664 93.5163 18.16 93.0523 18.56C92.5883 18.96 92.0763 19.16 91.5163 19.16C91.0683 19.16 90.6843 19 90.3643 18.68C90.0603 18.36 89.9083 17.928 89.9083 17.384C89.9083 17.08 89.9243 16.752 89.9563 16.4C89.9883 16.144 90.0043 15.968 90.0043 15.872C90.0043 15.744 89.9723 15.648 89.9083 15.584C89.8603 15.52 89.7963 15.488 89.7163 15.488C89.4923 15.488 89.1883 15.76 88.8043 16.304C88.4203 16.832 88.0363 17.536 87.6523 18.416C87.2683 19.296 86.9563 20.224 86.7163 21.2C86.5403 21.968 86.3403 22.48 86.1163 22.736C85.8923 22.992 85.5243 23.12 85.0123 23.12C84.4043 23.12 83.9723 22.8 83.7163 22.16C83.4763 21.52 83.3563 20.496 83.3563 19.088C83.3563 17.008 83.6523 15.032 84.2443 13.16C84.3883 12.696 84.6203 12.36 84.9403 12.152C85.2763 11.928 85.7403 11.816 86.3323 11.816C86.6523 11.816 86.8763 11.856 87.0043 11.936C87.1323 12.016 87.1963 12.168 87.1963 12.392C87.1963 12.648 87.0763 13.224 86.8363 14.12C86.6763 14.76 86.5483 15.32 86.4523 15.8C86.3563 16.28 86.2763 16.872 86.2123 17.576C86.7403 16.2 87.3323 15.08 87.9883 14.216C88.6443 13.352 89.2843 12.736 89.9083 12.368C90.5323 12 91.1003 11.816 91.6123 11.816C92.0763 11.816 92.4283 11.952 92.6683 12.224C92.9243 12.48 93.0523 12.864 93.0523 13.376C93.0523 13.68 92.9643 14.256 92.7883 15.104H93.0043Z" fill="#EA7000"/>
</svg>
